<?xml version="1.0" ?><!DOCTYPE svg  PUBLIC '-//W3C//DTD SVG 1.1//EN'  'http://www.w3.org/Graphics/SVG/1.1/DTD/svg11.dtd'><svg height="100%" style="fill-rule:evenodd;clip-rule:evenodd;stroke-linejoin:round;stroke-miterlimit:2;" version="1.1" viewBox="0 0 32 32" width="100%" xml:space="preserve" xmlns="http://www.w3.org/2000/svg" xmlns:serif="http://www.serif.com/" xmlns:xlink="http://www.w3.org/1999/xlink"><path d="M15.015,4.285l-10.827,11.693c-0.405,0.437 -0.512,1.073 -0.274,1.619c0.239,0.547 0.779,0.9 1.375,0.9l9.711,-0l0.001,3l-11.501,-0c-0.398,-0 -0.779,0.158 -1.061,0.439c-0.281,0.281 -0.439,0.598 -0.439,1.061c0,0.398 0.158,0.779 0.439,1.06c0.168,0.168 0.371,0.292 0.592,0.364c0.093,0.676 0.41,1.316 0.916,1.891c0.254,0.288 0.557,0.56 0.904,0.811c-0.18,0.018 -0.356,0.068 -0.522,0.151l-1.553,0.777c-0.246,0.123 -0.347,0.424 -0.223,0.67c0.123,0.247 0.424,0.347 0.671,0.224l1.553,-0.777c0.14,-0.07 0.306,-0.07 0.447,0c-0,0 1.105,0.553 1.105,0.553c0.423,0.211 0.92,0.211 1.342,-0.001l1.105,-0.552c0.141,-0.071 0.307,-0.071 0.448,-0l1.105,0.553c0.422,0.211 0.92,0.211 1.342,0c0,0 1.105,-0.552 1.105,-0.552c0.141,-0.071 0.307,-0.071 0.448,-0c-0,-0 1.105,0.552 1.105,0.552c0.422,0.211 0.92,0.211 1.342,-0l1.105,-0.553c0.141,-0.071 0.307,-0.071 0.448,-0l1.105,0.553c0.422,0.211 0.92,0.211 1.342,-0c0.33,-0.165 0.776,-0.388 1.105,-0.553c0.141,-0.071 0.307,-0.071 0.448,-0c0.329,0.165 0.775,0.388 1.105,0.553c0.422,0.211 0.92,0.211 1.342,-0l1.105,-0.553c0.141,-0.071 0.307,-0.071 0.448,-0l1.105,0.552c0.422,0.211 0.92,0.211 1.342,-0l1.553,-0.777c0.247,-0.124 0.347,-0.425 0.223,-0.671c-0.123,-0.247 -0.424,-0.347 -0.671,-0.224l-0.276,0.139l-0,-2.776c0.209,-0.074 0.401,-0.194 0.561,-0.354c0.281,-0.281 0.439,-0.662 0.439,-1.06c-0,-0 -0,-0 -0,-0c-0,-0.398 -0.158,-0.78 -0.439,-1.061c-0.282,-0.281 -0.663,-0.439 -1.061,-0.439l-9.999,-0l-0.001,-3l8.004,-0c0.613,-0 1.165,-0.373 1.393,-0.942c0.228,-0.569 0.086,-1.22 -0.357,-1.643l-9.04,-8.629l0,-2.787c0,-0.399 -0.158,-0.78 -0.44,-1.062c-0.282,-0.281 -0.664,-0.439 -1.062,-0.438l0.001,1c-0,-0 -0.001,-1 -0.001,-1c-0.756,0 -1.381,0.561 -1.483,1.289Zm-10.953,20.212c0.137,0.563 0.502,1.083 1.024,1.538c0.707,0.617 1.697,1.11 2.859,1.43l0.384,-0.192c0.422,-0.211 0.92,-0.211 1.342,0l1.105,0.554c0.141,0.07 0.307,0.07 0.448,-0l1.105,-0.553c0.422,-0.211 0.92,-0.211 1.342,0l1.105,0.553c0.141,0.07 0.307,0.07 0.448,-0c-0,-0 1.105,-0.553 1.105,-0.553c0.422,-0.212 0.92,-0.212 1.342,-0c0,-0 1.105,0.553 1.105,0.553c0.141,0.07 0.307,0.07 0.448,-0l1.105,-0.553c0.422,-0.212 0.92,-0.212 1.342,-0l1.105,0.553c0.141,0.07 0.307,0.07 0.448,-0l1.105,-0.553c0.422,-0.212 0.92,-0.212 1.342,-0.001c0.33,0.165 0.776,0.388 1.105,0.553c0.141,0.07 0.307,0.07 0.448,-0l0.276,-0.139l-0,-3.19l-23.438,-0Zm23.938,-2l-24.5,-0c-0.133,-0 -0.26,0.052 -0.354,0.146c-0.093,0.094 -0.146,0.221 -0.146,0.354c-0,0.132 0.053,0.26 0.146,0.353c0.094,0.094 0.221,0.147 0.354,0.147l24.5,-0c0.133,-0 0.26,-0.053 0.354,-0.147c0.093,-0.093 0.146,-0.221 0.146,-0.353c-0,-0.133 -0.053,-0.26 -0.146,-0.354c-0.094,-0.094 -0.221,-0.146 -0.354,-0.146Zm-11,-15.012l0,-2.989c0,-0.133 -0.053,-0.26 -0.147,-0.354c-0.093,-0.094 -0.221,-0.146 -0.354,-0.146c-0.276,0 -0.499,0.224 -0.499,0.5l0,2.701l0.001,10.8c-0,0.003 -0,0.007 -0.001,0.011l0.001,3.489l1,-0l-0.001,-8.747l0,-5.253c-0,-0.004 0,-0.008 0,-0.012Zm1,1.18l8.349,7.97c0.148,0.141 0.195,0.358 0.119,0.548c-0.076,0.189 -0.26,0.314 -0.464,0.314c0,-0 -8.003,-0 -8.003,-0l-0.001,-4.751l0,-4.081Zm-3,-1.468l0,10.3l-9.711,-0c-0.199,-0 -0.379,-0.118 -0.458,-0.3c-0.08,-0.182 -0.044,-0.394 0.091,-0.54l10.078,-10.884l0,1.424Z" id="Boat"/></svg>