<?xml version="1.0" ?><!DOCTYPE svg  PUBLIC '-//W3C//DTD SVG 1.1//EN'  'http://www.w3.org/Graphics/SVG/1.1/DTD/svg11.dtd'><svg height="100%" style="fill-rule:evenodd;clip-rule:evenodd;stroke-linejoin:round;stroke-miterlimit:2;" version="1.1" viewBox="0 0 32 32" width="100%" xml:space="preserve" xmlns="http://www.w3.org/2000/svg" xmlns:serif="http://www.serif.com/" xmlns:xlink="http://www.w3.org/1999/xlink"><path d="M22.331,14.232l-1.09,2.162c-0.071,0.14 -0.204,0.239 -0.359,0.267c0,-0 -2.292,0.411 -2.292,0.411c-0.479,0.086 -0.877,0.437 -1.027,0.92c-0.148,0.473 -0.029,0.992 0.303,1.348c0,-0 1.646,1.763 1.646,1.763c0.103,0.11 0.151,0.26 0.13,0.41l-0.34,2.444c-0.069,0.494 0.134,0.986 0.521,1.279c0.401,0.304 0.929,0.35 1.373,0.121c-0,0 2.304,-1.185 2.304,-1.185c-0,-0 2.304,1.185 2.304,1.185c0.444,0.229 0.972,0.183 1.373,-0.121c0.387,-0.293 0.59,-0.785 0.521,-1.279l-0.34,-2.444c-0.021,-0.15 0.027,-0.3 0.13,-0.41c-0,-0 1.646,-1.763 1.646,-1.763c0.332,-0.356 0.451,-0.875 0.303,-1.348c-0.15,-0.483 -0.548,-0.834 -1.027,-0.92c-0,-0 -2.292,-0.411 -2.292,-0.411c-0.155,-0.028 -0.288,-0.127 -0.359,-0.267c0,-0 -1.09,-2.162 -1.09,-2.162c-0.228,-0.452 -0.68,-0.731 -1.169,-0.731c-0.489,0 -0.941,0.279 -1.169,0.731Zm0.893,0.45c0.054,-0.108 0.159,-0.181 0.276,-0.181c0.117,0 0.222,0.073 0.276,0.181l1.091,2.162c0.212,0.421 0.61,0.718 1.074,0.801l2.292,0.411c0.119,0.021 0.212,0.114 0.25,0.233c0.04,0.129 0.01,0.271 -0.08,0.368l-1.646,1.763c-0.309,0.331 -0.452,0.783 -0.389,1.23c0.114,0.826 0.339,2.445 0.339,2.445c0.019,0.132 -0.031,0.266 -0.135,0.344c-0.09,0.069 -0.21,0.081 -0.31,0.029c-0,0 -2.533,-1.303 -2.533,-1.303c-0.144,-0.074 -0.314,-0.074 -0.458,-0l-2.533,1.303c-0.1,0.052 -0.22,0.04 -0.31,-0.029c-0.104,-0.078 -0.154,-0.212 -0.135,-0.344c-0,-0 0.225,-1.619 0.339,-2.445c0.063,-0.447 -0.08,-0.899 -0.389,-1.23l-1.646,-1.763c-0.09,-0.097 -0.12,-0.239 -0.08,-0.368c0.038,-0.119 0.131,-0.212 0.25,-0.233c-0,0 1.493,-0.267 2.292,-0.411c0.464,-0.083 0.862,-0.38 1.074,-0.801l1.091,-2.162Zm-13.716,-7.296l-1.681,3.125c-0.073,0.136 -0.205,0.231 -0.357,0.256l-3.566,0.6c-0.619,0.104 -1.126,0.537 -1.32,1.121c-0.196,0.59 -0.043,1.237 0.399,1.681c-0,0 2.512,2.523 2.512,2.523c0.112,0.112 0.164,0.27 0.141,0.426c-0.158,1.067 -0.516,3.481 -0.516,3.481c-0.091,0.612 0.17,1.224 0.682,1.588c0.505,0.359 1.171,0.415 1.731,0.145c-0,-0 3.467,-1.673 3.467,-1.673c0,-0 3.467,1.673 3.467,1.673c0.56,0.27 1.226,0.214 1.731,-0.145c0.512,-0.364 0.773,-0.976 0.682,-1.588c0,-0 -0.358,-2.414 -0.516,-3.481c-0.023,-0.156 0.029,-0.314 0.141,-0.426c-0,0 2.512,-2.523 2.512,-2.523c0.442,-0.444 0.595,-1.091 0.399,-1.681c-0.194,-0.584 -0.701,-1.017 -1.32,-1.121c-0,-0 -2.492,-0.419 -3.566,-0.6c-0.152,-0.025 -0.284,-0.12 -0.357,-0.256l-1.681,-3.125c-0.292,-0.543 -0.865,-0.885 -1.492,-0.885c-0.627,0 -1.2,0.342 -1.492,0.885Zm0.881,0.473c0.119,-0.221 0.355,-0.358 0.611,-0.358c0.256,0 0.492,0.137 0.611,0.358c0,0 1.171,2.178 1.681,3.126c0.219,0.408 0.615,0.692 1.072,0.769c1.074,0.18 3.566,0.599 3.566,0.599c0.251,0.042 0.459,0.214 0.537,0.451c0.077,0.231 0.015,0.485 -0.158,0.66l-2.513,2.522c-0.334,0.336 -0.49,0.81 -0.421,1.279c0.158,1.067 0.516,3.481 0.516,3.481c0.036,0.242 -0.07,0.482 -0.272,0.626c-0.209,0.148 -0.486,0.171 -0.717,0.059c-0,0 -3.685,-1.778 -3.685,-1.778c-0.137,-0.066 -0.297,-0.066 -0.434,0l-3.685,1.778c-0.231,0.112 -0.508,0.089 -0.717,-0.059c-0.202,-0.144 -0.308,-0.384 -0.272,-0.626c-0,-0 0.358,-2.414 0.516,-3.481c0.069,-0.469 -0.087,-0.943 -0.421,-1.279l-2.513,-2.522c-0.173,-0.175 -0.235,-0.429 -0.158,-0.66c0.078,-0.237 0.286,-0.409 0.537,-0.451c-0,-0 2.492,-0.419 3.566,-0.599c0.457,-0.077 0.853,-0.361 1.072,-0.769c0.51,-0.948 1.681,-3.126 1.681,-3.126Z" id="Star"/></svg>